<svg xmlns="http://www.w3.org/2000/svg" width="512" height="512" viewBox="0 0 512 512" fill="none"><g clip-path="url(#clip0_583_19560)"><path d="M256 512C397.385 512 512 397.385 512 256C512 114.615 397.385 0 256 0C114.615 0 0 114.615 0 256C0 397.385 114.615 512 256 512Z" fill="#231E20"></path><path d="M240.37 256.61L194.39 129.05L102.4 384.17H194.3L208.64 344.65L240.37 256.61Z" fill="white"></path><path d="M317.78 129.05L271.8 256.61L271.88 256.86L271.97 256.61L318.24 384.17H409.77L317.78 129.05Z" fill="white"></path><path d="M224.35 344.65L210.09 384.17H302.08L256.18 256.86L224.35 344.65Z" fill="white"></path></g><defs><clipPath id="clip0_583_19560"><rect width="512" height="512" fill="white"></rect></clipPath></defs></svg>