<svg width="1920" height="383" viewBox="0 0 1920 383" fill="none" xmlns="http://www.w3.org/2000/svg">
<path d="M0 5.32373H78.6799L113.771 271.407H114.769L149.86 5.32373H228.54V377.089H176.419V95.622H175.421L135.342 377.089H89.2072L49.1276 95.622H48.1299V377.089H0V5.32373Z" fill="#A1A1A6"/>
<path d="M269.65 5.32373H419.992V58.4382H324.764V156.684H400.451V209.798H324.764V323.974H419.992V377.089H269.65V5.32373Z" fill="#A1A1A6"/>
<path d="M468.849 358.496C454.985 342.565 448.035 320.072 448.035 291.054V91.3555C448.035 62.3376 454.95 39.845 468.849 23.9143C482.713 7.98357 502.839 0 529.226 0C555.613 0 575.739 7.98357 589.604 23.9143C603.468 39.845 610.417 62.3376 610.417 91.3555V130.654H558.297V87.6371C558.297 64.6342 549.111 53.1145 530.74 53.1145C512.369 53.1145 503.183 64.6342 503.183 87.6371V295.283C503.183 317.958 512.369 329.259 530.74 329.259C549.111 329.259 558.297 317.922 558.297 295.283V238.487H610.417V291.054C610.417 320.072 603.468 342.565 589.604 358.496C575.739 374.426 555.613 382.41 529.226 382.41C502.839 382.41 482.713 374.426 468.849 358.496Z" fill="#A1A1A6"/>
<path d="M643.513 5.32373H698.661V156.684H757.8V5.32373H812.913V377.089H757.8V209.798H698.661V377.089H643.513V5.32373Z" fill="#A1A1A6"/>
<path d="M896.613 5.32373H971.302L1028.45 377.052H973.298L963.286 303.232V304.289H900.638L890.627 377.052H839.47L896.613 5.32373ZM956.75 253.872L932.186 70.1402H931.188L907.141 253.872H956.75Z" fill="#A1A1A6"/>
<path d="M1054.97 5.32373H1124.12L1177.75 227.843H1178.75V5.32373H1227.88V377.089H1171.25L1105.09 105.72H1104.1V377.089H1054.97V5.32373Z" fill="#A1A1A6"/>
<path d="M1324.07 5.32373H1268.96V377.052H1324.07V5.32373Z" fill="#A1A1A6"/>
<path d="M1365.18 5.32373H1420.29V162.006L1490.48 5.32373H1545.59L1479.95 141.81L1546.59 377.089H1488.96L1442.35 211.402L1420.29 258.647V377.089H1365.18V5.32373Z" fill="#A1A1A6"/>
<path d="M1582.19 357.986C1567.81 341.691 1560.66 318.688 1560.66 288.941V93.5075C1560.66 63.7604 1567.85 40.7575 1582.19 24.4623C1596.54 8.167 1617.29 0.0375977 1644.33 0.0375977C1671.37 0.0375977 1692.11 8.20346 1706.46 24.4623C1720.8 40.7575 1727.99 63.7604 1727.99 93.5075V288.941C1727.99 318.688 1720.8 341.691 1706.46 357.986C1692.08 374.282 1671.37 382.411 1644.33 382.411C1617.29 382.411 1596.54 374.245 1582.19 357.986ZM1672.92 292.66V89.7891C1672.92 65.3644 1663.39 53.1521 1644.36 53.1521C1625.3 53.1521 1615.81 65.3644 1615.81 89.7891V292.66C1615.81 317.084 1625.34 329.297 1644.36 329.297C1663.39 329.297 1672.92 317.084 1672.92 292.66Z" fill="#A1A1A6"/>
<path d="M1776.13 358.242C1762.43 342.129 1755.59 319.053 1755.59 288.941V267.688H1807.71V293.17C1807.71 317.267 1817.24 329.297 1836.26 329.297C1845.62 329.297 1852.71 326.38 1857.56 320.547C1862.41 314.715 1864.82 305.236 1864.82 292.149C1864.82 276.583 1861.48 262.84 1854.81 250.992C1848.13 239.144 1835.75 224.89 1817.72 208.23C1794.98 186.977 1779.12 167.802 1770.1 150.596C1761.09 133.425 1756.58 114.031 1756.58 92.4503C1756.58 63.0678 1763.6 40.3201 1777.64 24.2071C1791.68 8.09409 1812.04 0.0375977 1838.77 0.0375977C1865.16 0.0375977 1885.15 8.09409 1898.67 24.2071C1912.19 40.3201 1918.97 63.4323 1918.97 93.5075V108.891H1866.85V89.7891C1866.85 77.0299 1864.51 67.734 1859.83 61.9013C1855.15 56.0685 1848.3 53.1521 1839.29 53.1521C1820.92 53.1521 1811.73 65.0364 1811.73 88.7319C1811.73 102.184 1815.14 114.761 1822.02 126.426C1828.87 138.092 1841.32 152.272 1859.35 168.896C1882.4 190.149 1898.26 209.433 1906.96 226.786C1915.63 244.138 1920 264.48 1920 287.848C1920 318.287 1912.91 341.655 1898.7 357.95C1884.5 374.245 1863.89 382.375 1836.81 382.375C1810.05 382.411 1789.85 374.355 1776.13 358.242Z" fill="#A1A1A6"/>
</svg>
